<?xml version="1.0" encoding="UTF-8"?>
<svg id="Layer_1" data-name="Layer 1" xmlns="http://www.w3.org/2000/svg" viewBox="0 0 15 14.98">
  <path d="M6.32,6.67H.36c-.2,0-.36-.16-.36-.36V.36c0-.2.16-.36.36-.36h1.43c.2,0,.36.16.36.36v2.32C3.5,1.17,5.48.22,7.68.24c4.07.03,7.33,3.32,7.32,7.39,0,4.06-3.31,7.36-7.38,7.36-1.91,0-3.64-.72-4.95-1.91-.15-.14-.16-.37-.01-.52l1.01-1.01c.13-.13.35-.14.49-.02.92.82,2.14,1.31,3.47,1.31,2.89,0,5.23-2.34,5.23-5.23s-2.34-5.23-5.23-5.23c-1.74,0-3.28.85-4.23,2.15h2.92c.2,0,.36.16.36.36v1.43c0,.2-.16.36-.36.36Z" fill="#231f20"/>
</svg>