<svg width="35" height="35" viewBox="0 0 35 35" fill="none" xmlns="http://www.w3.org/2000/svg">
<path d="M15.3854 26.5418L22.9323 17.5001H17.099L18.1563 9.22404L11.4115 18.9584H16.4792L15.3854 26.5418ZM13.125 21.8751H8.60417C8.02084 21.8751 7.58917 21.614 7.30917 21.092C7.02917 20.5699 7.05979 20.0653 7.40104 19.5782L18.3021 3.90113C18.5451 3.56085 18.8611 3.32411 19.25 3.19092C19.6389 3.05772 20.0399 3.06356 20.4531 3.20842C20.8663 3.35328 21.1701 3.60849 21.3646 3.97404C21.559 4.3396 21.6319 4.72849 21.5833 5.14071L20.4167 14.5834H26.0677C26.6997 14.5834 27.1435 14.8629 27.3992 15.422C27.6549 15.981 27.5756 16.5036 27.1615 16.9897L15.1667 31.3543C14.8993 31.6702 14.5712 31.8768 14.1823 31.974C13.7934 32.0713 13.4167 32.0348 13.0521 31.8647C12.6875 31.6945 12.4022 31.4335 12.196 31.0815C11.9899 30.7296 11.9107 30.3465 11.9583 29.9324L13.125 21.8751Z" fill="#3FABF8"/>
</svg>
