<?xml version="1.0" encoding="UTF-8"?>
<svg id="Layer_1" data-name="Layer 1" xmlns="http://www.w3.org/2000/svg" viewBox="0 0 24 24">
  <path d="M19.11,6.24c-1.52-1.52-3.97-1.52-5.49,0l-1,1c-.34.34-.89.34-1.23,0l-1-1c-1.52-1.52-3.97-1.52-5.49,0s-1.52,3.97,0,5.49l7.11,7.11,7.11-7.11c1.52-1.52,1.52-3.97,0-5.49ZM12.56,5.18c2.1-2.1,5.51-2.1,7.61,0,2.1,2.1,2.1,5.51,0,7.61l-7.21,7.21c-.53.53-1.4.53-1.93,0l-7.21-7.21c-2.1-2.1-2.1-5.51,0-7.61,2.1-2.1,5.51-2.1,7.61,0l.56.56.56-.56Z" fill="#231f20" fill-rule="evenodd"/>
</svg>