<?xml version="1.0" encoding="UTF-8"?>
<svg id="Layer_1" data-name="Layer 1" xmlns="http://www.w3.org/2000/svg" viewBox="0 0 24 24">
  <path d="M19.5,17.13v-6.32c0-.79-.38-1.54-1.01-2.01l-5.6-4.14c-.53-.39-1.26-.39-1.79,0l-5.6,4.14c-.64.47-1.01,1.22-1.01,2.01v6.32c0,1.38,1.12,2.5,2.5,2.5h10c1.38,0,2.5-1.12,2.5-2.5ZM4.62,7.6c-1.02.75-1.62,1.95-1.62,3.21v6.32c0,2.21,1.79,4,4,4h10c2.21,0,4-1.79,4-4v-6.32c0-1.27-.6-2.46-1.62-3.21l-5.6-4.14c-1.06-.79-2.51-.79-3.57,0l-5.6,4.14Z" fill="#221d1b" fill-rule="evenodd"/>
  <path d="M9.25,16.13c0-.41.34-.75.75-.75h4c.41,0,.75.34.75.75s-.34.75-.75.75h-4c-.41,0-.75-.34-.75-.75Z" fill="#221d1b" fill-rule="evenodd"/>
</svg>