<?xml version="1.0" encoding="UTF-8"?>
<svg id="Layer_1" data-name="Layer 1" xmlns="http://www.w3.org/2000/svg" viewBox="0 0 24 24">
  <path d="M12,4.25c-1.52,0-2.75,1.23-2.75,2.75s1.23,2.75,2.75,2.75,2.75-1.23,2.75-2.75-1.23-2.75-2.75-2.75ZM7.75,7c0-2.35,1.9-4.25,4.25-4.25s4.25,1.9,4.25,4.25-1.9,4.25-4.25,4.25-4.25-1.9-4.25-4.25Z" fill="#231f20" fill-rule="evenodd"/>
  <path d="M4.25,17.5c0-2.62,2.13-4.75,4.75-4.75h6c2.62,0,4.75,2.13,4.75,4.75v2c0,.97-.78,1.75-1.75,1.75H6c-.97,0-1.75-.78-1.75-1.75v-2ZM9,14.25c-1.79,0-3.25,1.46-3.25,3.25v2c0,.14.11.25.25.25h12c.14,0,.25-.11.25-.25v-2c0-1.79-1.46-3.25-3.25-3.25h-6Z" fill="#231f20" fill-rule="evenodd"/>
</svg>