<?xml version="1.0" encoding="UTF-8"?>
<svg id="Layer_1" data-name="Layer 1" xmlns="http://www.w3.org/2000/svg" viewBox="0 0 20.1 20">
  <path d="M7.3,20l-.4-3.2c-.22-.08-.42-.18-.61-.3-.19-.12-.38-.24-.56-.38l-2.97,1.25L0,12.62l2.58-1.95c-.02-.12-.02-.23-.02-.34v-.68c0-.11,0-.22.02-.34l-2.58-1.95L2.75,2.62l2.97,1.25c.18-.13.38-.26.57-.38.2-.12.4-.22.6-.3l.4-3.2h5.5l.4,3.2c.22.08.42.18.61.3.19.12.38.24.56.38l2.97-1.25,2.75,4.75-2.57,1.95c.02.12.02.23.02.34v.67c0,.11-.02.22-.05.34l2.58,1.95-2.75,4.75-2.95-1.25c-.18.13-.38.26-.57.38s-.4.22-.6.3l-.4,3.2h-5.5ZM10.1,13.5c.97,0,1.79-.34,2.47-1.02s1.03-1.51,1.03-2.48-.34-1.79-1.03-2.47-1.51-1.03-2.47-1.03-1.81.34-2.49,1.03c-.68.68-1.01,1.51-1.01,2.47,0,.97.34,1.79,1.01,2.48.67.68,1.5,1.02,2.49,1.02Z"/>
</svg>