<svg width="29" height="27" viewBox="0 0 29 27" fill="none" xmlns="http://www.w3.org/2000/svg">
<path d="M16.9584 0.375C18.0743 0.374938 19.1481 0.801307 19.96 1.56687C20.772 2.33244 21.2607 3.37932 21.3261 4.49333L21.3334 4.75V10.5833H24.2501C25.3221 10.5832 26.3569 10.9766 27.1581 11.689C27.9592 12.4014 28.4708 13.3832 28.5959 14.4479L28.6178 14.7017L28.6251 14.9583L28.5959 15.2442L27.1288 22.5825C26.5732 24.9537 24.9384 26.66 23.0309 26.6367L22.7917 26.625H11.1251C10.7679 26.625 10.4231 26.4938 10.1562 26.2565C9.88928 26.0191 9.71875 25.692 9.67696 25.3373L9.66675 25.1667L9.66821 11.26C9.66847 11.0043 9.73598 10.7531 9.86396 10.5317C9.99194 10.3103 10.1759 10.1264 10.3974 9.99854C11.0191 9.63919 11.5428 9.13233 11.9222 8.5227C12.3017 7.91306 12.5253 7.2194 12.5732 6.50292L12.5834 6.20833V4.75C12.5834 3.58968 13.0444 2.47688 13.8648 1.65641C14.6853 0.835936 15.7981 0.375 16.9584 0.375ZM5.29175 10.5833C5.64894 10.5834 5.9937 10.7145 6.26062 10.9519C6.52755 11.1892 6.69808 11.5163 6.73987 11.871L6.75008 12.0417V25.1667C6.75003 25.5239 6.6189 25.8686 6.38154 26.1355C6.14418 26.4025 5.81711 26.573 5.46237 26.6148L5.29175 26.625H3.83341C3.09757 26.6252 2.38884 26.3473 1.84928 25.847C1.30973 25.3466 0.979228 24.6608 0.92404 23.9271L0.916748 23.7083V13.5C0.916515 12.7642 1.19442 12.0554 1.69476 11.5159C2.1951 10.9763 2.8809 10.6458 3.61466 10.5906L3.83341 10.5833H5.29175Z" fill="#00E500"/>
</svg>
